HIERARCHY
ROOT __0
{
	OFFSET 0.0 0.0 0.0
	CHANNELS 0
	JOINT Bone
	{
		OFFSET 0.017590 0.000000 0.000000
		CHANNELS 6 Xposition Yposition Zposition Xrotation Yrotation Zrotation
		End Site
		{
			OFFSET 0.000000 0.000000 1.000000
		}
	}
	JOINT Bone.001
	{
		OFFSET 0.000000 0.000000 -0.025895
		CHANNELS 6 Xposition Yposition Zposition Xrotation Yrotation Zrotation
		End Site
		{
			OFFSET 0.000000 -0.227093 1.026576
		}
	}
	JOINT Bone.002
	{
		OFFSET 0.000000 0.000000 0.000000
		CHANNELS 6 Xposition Yposition Zposition Xrotation Yrotation Zrotation
		End Site
		{
			OFFSET 0.000000 -0.195626 0.936566
		}
	}
}
MOTION
Frames: 15
Frame Time: 0.041667
0.017590 0.000000 0.000000 -0.000000 0.000000 -0.000000 -0.000000 -0.000000 -0.025895 -0.000001 0.000000 -0.000000 0.000000 0.000000 0.000000 -0.000001 0.000000 0.000000 
0.109223 0.000000 0.000000 -0.000000 0.000000 -0.000000 0.008576 -0.000443 0.107675 -0.000001 0.000000 -0.000000 -0.095607 0.000000 0.000000 -0.000001 0.000000 0.000000 
0.365796 0.000000 0.000000 -0.000000 0.000000 -0.000000 0.002589 -0.001682 0.481672 -0.000001 0.000000 -0.000000 -0.363308 0.000000 0.000000 -0.000001 0.000000 0.000000 
0.759818 0.000000 0.000000 -0.000000 0.000000 -0.000000 0.009465 -0.003585 1.056023 -0.000001 0.000000 -0.000000 -0.774419 0.000000 0.000000 -0.000001 0.000000 0.000000 
1.263799 0.000000 0.000000 -0.000000 0.000000 -0.000000 0.006633 -0.006019 1.790660 -0.000001 0.000000 -0.000000 -1.300259 0.000000 0.000000 -0.000001 0.000000 0.000000 
1.850251 0.000000 0.000000 -0.000000 0.000000 -0.000000 0.001519 -0.008851 2.645509 -0.000001 0.000000 -0.000000 -1.912145 0.000000 0.000000 -0.000001 0.000000 0.000000 
2.491682 0.000000 0.000000 -0.000000 0.000000 -0.000000 0.001550 -0.011949 3.580500 -0.000001 0.000000 -0.000000 -2.581395 0.000000 0.000000 -0.000001 0.000000 0.000000 
3.160603 0.000000 0.000000 -0.000000 0.000000 -0.000000 0.004154 -0.015180 4.555562 -0.000001 0.000000 -0.000000 -3.279329 0.000000 0.000000 -0.000001 0.000000 0.000000 
3.829524 0.000000 0.000000 -0.000000 0.000000 -0.000000 0.006759 -0.018410 5.530625 -0.000001 0.000000 -0.000000 -3.977262 0.000000 0.000000 -0.000001 0.000000 0.000000 
4.470955 0.000000 0.000000 -0.000000 0.000000 -0.000000 0.006790 -0.021508 6.465616 -0.000001 0.000000 -0.000000 -4.646513 0.000000 0.000000 -0.000001 0.000000 0.000000 
5.057407 0.000000 0.000000 -0.000000 0.000000 -0.000000 0.001676 -0.024341 7.320465 -0.000001 0.000000 -0.000000 -5.258399 0.000000 0.000000 -0.000001 0.000000 0.000000 
5.561388 0.000000 0.000000 -0.000000 0.000000 -0.000000 0.008844 -0.026774 8.055100 -0.000001 0.000000 -0.000000 -5.784239 0.000000 0.000000 -0.000001 0.000000 0.000000 
5.955410 0.000000 0.000000 -0.000000 0.000000 -0.000000 0.005720 -0.028677 8.629450 -0.000001 0.000000 -0.000000 -6.195350 0.000000 0.000000 -0.000001 0.000000 0.000000 
6.211984 0.000000 0.000000 -0.000000 0.000000 -0.000000 0.009733 -0.029917 9.003448 -0.000001 0.000000 -0.000000 -6.463050 0.000000 0.000000 -0.000001 0.000000 0.000000 
6.303617 0.000000 0.000000 -0.000000 0.000000 -0.000000 0.008309 -0.030359 9.137020 -0.000001 0.000000 -0.000000 -6.558658 0.000000 0.000000 -0.000001 0.000000 0.000000 
